
	<svg xmlns="http://www.w3.org/2000/svg" xmlns:xlink="http://www.w3.org/1999/xlink" version="1.1" width="256" height="256" viewBox="0 0 100 100">


		<defs>
			<linearGradient id="Gradient_2" gradientUnits="userSpaceOnUse" x1="50" y1="62" x2="50" y2="0" spreadMethod="pad">
			<stop offset="0%" stop-color="#FFFFFF" stop-opacity="0.2"/>
			<stop offset="100%" stop-color="#FFFFFF" stop-opacity="0.7"/>
		</linearGradient><linearGradient id="Gradient_3" gradientUnits="userSpaceOnUse" x1="60" y1="100" x2="60" y2="0" spreadMethod="pad">
			<stop offset="0%" stop-color="#FFFFFF" stop-opacity="0"/>
			<stop offset="100%" stop-color="#FFFFFF" stop-opacity="0.4"/>
		</linearGradient><linearGradient id="Gradient_4" gradientUnits="userSpaceOnUse" x1="40" y1="100" x2="40" y2="0" spreadMethod="pad">
			<stop offset="0%" stop-color="#FFFFFF" stop-opacity="0"/>
			<stop offset="100%" stop-color="#FFFFFF" stop-opacity="0.4"/>
		</linearGradient><g id="background">
			<path fill="url(#background-gradient)" stroke="none" d=" M 100 13.35 Q 100 7.85 96.1 3.95 92.2 0 86.65 0 L 13.3 0 Q 7.8 0 3.9 3.95 0 7.85 0 13.35 L 0 86.7 Q 0 92.2 3.9 96.15 7.8 100 13.3 100 L 86.65 100 Q 92.2 100 96.1 96.15 100 92.2 100 86.7 L 100 13.35 Z"/>
		</g><mask id="mask">
			<path fill="#FFFFFF" stroke="none" d=" M 100 13.35 Q 100 7.85 96.1 3.95 92.2 0 86.65 0 L 13.3 0 Q 7.8 0 3.9 3.95 0 7.85 0 13.35 L 0 86.7 Q 0 92.2 3.9 96.15 7.8 100 13.3 100 L 86.65 100 Q 92.2 100 96.1 96.15 100 92.2 100 86.7 L 100 13.35 Z"/>
		</mask><g id="gloss-top">
			<path fill="url(#Gradient_2)" stroke="none" d=" M 100 42.9 L 100 13.35 Q 100 7.8 96.15 3.9 92.25 0 86.7 0 L 13.35 0 Q 7.85 0 3.9 3.9 0 7.8 0 13.35 L 0 42.9 Q 10.3 51.8 22.9 56.65 35.95 61.65 50 61.65 64.05 61.65 77.1 56.65 89.75 51.8 100 42.9 Z"/>
		</g><g id="gloss-right">
			<path fill="url(#Gradient_3)" stroke="none" d=" M 96.1 3.9 Q 92.2 0 86.7 0 L 20.85 0 75.8 100 86.7 100 Q 92.2 100 96.1 96.1 100 92.2 100 86.65 L 100 13.35 Q 100 7.8 96.1 3.9 Z"/>
		</g><g id="gloss-left">
			<path fill="url(#Gradient_4)" stroke="none" d=" M 3.9 3.95 Q 0 7.85 0 13.35 L 0 86.7 Q 0 92.2 3.9 96.15 7.8 100 13.3 100 L 24.2 100 79.15 0 13.3 0 Q 7.8 0 3.9 3.95 Z"/>
		</g>
			
	<linearGradient id="background-gradient" x1="0" y1="0" y2="1" x2="0" >
		<stop stop-color="#6FDBFD" offset="0%"/>
		<stop stop-color="#ff1199" offset="100%"/>
	</linearGradient>

			
			
	<filter id="drop-shadow">
		<feGaussianBlur in="SourceAlpha" stdDeviation="2" />
		<feComponentTransfer>
			<feFuncA type="linear" slope="1"/>
		</feComponentTransfer>
		<feOffset dx="-1.414213562373095" dy="1.1102230246251565e-16" result="offsetblur" />
		<feFlood flood-color="#ffffff" />
		<feComposite in2="offsetblur" operator="in" />
		<feMerge>
			<feMergeNode />
			<feMergeNode in="SourceGraphic" />
		</feMerge>
	</filter>

			<g transform="scale(3.3333333333333335)" id="picture"><path d="M24.6 21.5l-3.2-1.3s0-.1-.1-.1l-.9-.9c.7-.9 1.3-2 1.7-3.2 1 0 1.8-1.3 1.8-3 0-1.5-.4-2.5-1-2.9V3.5c0-.1 0-.2-.1-.2.1-.2-1.8-3.3-7.3-3.3S7.2 3 7.1 3.2c-.1.1-.1.2-.1.3V10c-.5.2-1 1-1 2.9 0 1.7.8 3 1.8 3 .4 1.2.9 2.2 1.6 3.1l-.7 1.1-3.2 1.1C2.3 22.3 0 25.9 0 29.5c0 .3.2.5.5.5h29c.3 0 .5-.2.5-.5 0-3.5-2.3-6.9-5.4-8zM1.8 26h26.3c.2.3.3.7.4 1H1.4c.1-.4.3-.7.4-1zm1.3-2h23.6c.3.3.6.7.9 1H2.4c.2-.4.5-.7.7-1zm22.3-1h-6.6c.8-.5 1.6-1 2.4-1.8l3.2 1.3c.3.1.7.3 1 .5zM9 3.3c.1-.2.4-.4.7-.3 0 0 2.4 1 5.3 1 3 0 5.3-1 5.3-1 .3-.1.5 0 .7.3.1.3 0 .5-.3.7-.1 0-2.5 1-5.7 1S9.4 4 9.3 4c-.2-.1-.4-.4-.3-.7zm0 3c.1-.2.4-.4.7-.3 0 0 2.4 1 5.3 1 3 0 5.3-1 5.3-1 .3-.1.5 0 .7.3.1.3 0 .5-.3.7-.1 0-2.5 1-5.7 1S9.4 7 9.3 7c-.2-.1-.4-.4-.3-.7zm-.7 8.6c-.1-.1-.3 0-.5 0h-.1c-.2.1-.7-.7-.7-1.9 0-1.4.3-2 .4-2 .1 0 .3 0 .4-.2s.2-.2.2-.4v-.3c1.1.3 3.6.8 7 .8s5.9-.5 7-.8v.3c0 .3.2.5.5.5.2 0 .5.6.5 2 0 1.2-.5 2-.8 2h-.1c-.1-.1-.3-.1-.5 0-.1.1-.3.2-.3.3-.7 3.4-3.4 5.8-6.3 5.8s-5.6-2.4-6.4-5.7c0-.2-.1-.3-.3-.4zM15 22c1.8 0 3.5-.8 4.8-2l.5.6c-1.6 1.6-3.5 2.4-5.5 2.4s-3.8-.8-5.4-2.3l.6-.8c1.4 1.3 3.2 2.1 5 2.1zm-9.3.2l2.9-1c.7.7 1.5 1.3 2.4 1.8H4.3c.4-.3.9-.6 1.4-.8zM1 29c0-.3.1-.7.1-1h27.7c.1.3.1.7.1 1H1z M11.5 13h1c.3 0 .5-.2.5-.5s-.2-.5-.5-.5h-1c-.3 0-.5.2-.5.5s.2.5.5.5zm6 0h1c.3 0 .5-.2.5-.5s-.2-.5-.5-.5h-1c-.3 0-.5.2-.5.5s.2.5.5.5z"/></g>
			
	<linearGradient id="picture-gradient" x1="0" y1="0" y2="1" x2="0" >
		<stop stop-color="#ffffff" offset="0%"/>
		<stop stop-color="#e5eff9" offset="100%"/>
	</linearGradient>

		</defs>

		

			<use xlink:href="#background" fill="url(#background-gradient)" />

		

			<g mask="url(#mask)">
				<g transform="
				        translate(
                                50 50
)
                            translate(0 0)  scale(0.5)  
                            translate(
                                -50 -50
)">
					<g filter="url(#drop-shadow)">
						<use xlink:href="#picture" fill="url(#picture-gradient)"  />
					</g>
				</g>
			</g>

		

			<use xlink:href="#gloss-top" opacity="0.25" />


	</svg>
